<?xml version="1.0" encoding="utf-8"?>
<!-- Generator: Adobe Illustrator 28.3.0, SVG Export Plug-In . SVG Version: 6.00 Build 0)  -->
<svg version="1.1" id="Layer_1" xmlns="http://www.w3.org/2000/svg" xmlns:xlink="http://www.w3.org/1999/xlink" x="0px" y="0px"
	 viewBox="0 0 320 52" style="enable-background:new 0 0 320 52;" xml:space="preserve">
<style type="text/css">
	.st0{fill:#FF7900;}
	.st1{fill:url(#SVGID_1_);}
</style>
<g>
	<path class="st0" d="M152.83,14.57h11.13l-6.53,36.41H146.3l0.45-2.48c-2.82,2.33-6.53,3.5-11.13,3.5c-5.71,0-9.8-2.04-12.39-6.04
		c-2.6-4.08-3.34-8.74-2.3-14.06c0.96-5.03,3.27-9.32,6.98-12.89c3.79-3.64,8.39-5.46,13.88-5.46c4.68,0,8.09,1.6,10.39,4.88
		L152.83,14.57z M149.57,32.77c0.96-5.46-2.08-8.88-7.2-8.88s-9.35,3.42-10.32,8.88c-0.96,5.46,2,8.89,7.12,8.89
		s9.43-3.5,10.39-8.81L149.57,32.77L149.57,32.77z"/>
	<path class="st0" d="M164.04,43.04l10.02-4.95c1.11,2.77,3.27,4.15,6.61,4.15c2.52,0,3.86-0.66,4.08-1.89
		c0.3-1.53-2.6-2.55-6.16-3.5c-5.12-1.24-11.65-4.08-10.02-12.31c1.41-7.72,8.98-11,15.59-11c6.53,0,11.8,2.91,14.18,7.79
		l-10.02,4.88c-0.89-2.11-2.52-3.2-4.82-3.2c-2.23,0-3.49,0.73-3.78,2.26c-0.37,1.97,2.45,2.84,6.01,3.71
		c5.12,0.95,11.73,3.5,10.09,12.16C194.4,48.5,188.09,52,179.7,52C172.06,52,166.79,49.01,164.04,43.04z"/>
	<path class="st0" d="M216.51,25.05l-2.3,12.89c-0.59,2.99,1.56,3.5,7.12,3.13l-1.78,9.9c-13.29,1.46-18.33-2.77-16.48-13.04
		l2.3-12.89h-5.94l1.93-10.49h5.86l1.26-6.92l11.73-3.28l-1.86,10.2h7.72l-1.93,10.49L216.51,25.05L216.51,25.05z"/>
	<path class="st0" d="M226.98,44.94c0.67-3.86,4.16-6.77,8.24-6.77c3.86,0,6.46,3.28,5.79,7.06c-0.67,3.86-4.08,6.77-8.31,6.77
		C228.83,52,226.31,48.72,226.98,44.94z"/>
	<path class="st0" d="M270.17,14.57h12.32L262.6,50.98h-11.13l-6.83-36.41h11.43l3.12,22.29L270.17,14.57z"/>
	<path class="st0" d="M317.45,17.62c2.3,2.69,3.04,6.34,2.23,11l-4.01,22.36h-11.13l3.71-20.76c0.82-4.44-1.48-6.63-5.34-6.63
		c-3.93,0-7.12,2.33-8.09,7.06l-3.64,20.32h-11.13l6.53-36.41h11.13l-0.59,3.42c2.75-2.99,6.38-4.44,10.91-4.44
		C312.04,13.55,315.15,14.93,317.45,17.62z"/>
	<path class="st0" d="M93.81,0l-2,11.22H78.45l-7.12,39.76H59.45l7.12-39.76H53.21l2-11.22C55.21,0,93.81,0,93.81,0z"/>
	<polygon class="st0" points="126.94,0 122.05,0 99.01,0 89.88,50.98 101.75,50.98 105.09,32.26 111.59,32.26 114.48,32.26 
		114.48,32.24 114.56,32.24 120.1,21.05 116.49,21.05 111.59,21.05 107.1,21.05 108.88,11.22 122.05,11.22 124.93,11.22 
		124.94,11.2 125.01,11.2 130.55,0 	"/>
	
		<linearGradient id="SVGID_1_" gradientUnits="userSpaceOnUse" x1="0" y1="471.49" x2="50.02" y2="471.49" gradientTransform="matrix(1 0 0 1 0 -446)">
		<stop  offset="0" style="stop-color:#FF7900;stop-opacity:0"/>
		<stop  offset="0.7" style="stop-color:#FF7900"/>
	</linearGradient>
	<polygon class="st1" points="38.15,0 38.14,0.01 9.41,1.44 37.6,3.04 36.03,11.8 20.39,12.58 35.74,13.45 34.25,21.76 1.8,22.77 
		33.63,25.2 31.54,36.86 13.99,37.74 31.21,38.71 29.59,47.78 0,48.9 29.02,50.95 29.02,50.98 40.89,50.98 50.02,0 	"/>
</g>
</svg>
